<svg width="24" height="22" viewBox="0 0 24 22" fill="none" xmlns="http://www.w3.org/2000/svg">
<path d="M12 4.31691L11.448 4.82491C11.5182 4.90128 11.6036 4.96224 11.6986 5.00394C11.7936 5.04564 11.8962 5.06718 12 5.06718C12.1038 5.06718 12.2064 5.04564 12.3014 5.00394C12.3964 4.96224 12.4818 4.90128 12.552 4.82491L12 4.31691ZM16.5 12.1589L15.973 12.6919C16.1134 12.8305 16.3027 12.9083 16.5 12.9083C16.6973 12.9083 16.8866 12.8305 17.027 12.6919L16.5 12.1579V12.1589ZM9.439 17.7599C6.385 15.2439 2.75 12.7739 2.75 8.11991H1.25C1.25 13.6359 5.654 16.5849 8.485 18.9179L9.439 17.7599ZM2.75 8.11991C2.75 5.83991 3.982 3.94591 5.636 3.15591C7.232 2.39291 9.386 2.58591 11.448 4.82591L12.552 3.80991C10.114 1.15991 7.268 0.711911 4.989 1.79991C2.768 2.86291 1.25 5.31391 1.25 8.11991H2.75ZM8.485 18.9179C8.997 19.3399 9.547 19.7899 10.105 20.1309C10.661 20.4709 11.301 20.7509 12 20.7509V19.2509C11.699 19.2509 11.34 19.1279 10.886 18.8509C10.434 18.5749 9.965 18.1929 9.439 17.7599L8.485 18.9179ZM22.75 8.11991C22.75 5.31491 21.232 2.86391 19.01 1.80191C16.732 0.712911 13.886 1.16191 11.448 3.80991L12.552 4.82591C14.614 2.58591 16.768 2.39291 18.364 3.15591C20.018 3.94591 21.25 5.83991 21.25 8.11991H22.75ZM11.75 14.0599C11.75 13.0909 12.326 12.2729 13.12 11.9279C13.877 11.5989 14.93 11.6629 15.973 12.6919L17.027 11.6259C15.594 10.2109 13.897 9.95491 12.523 10.5519C11.844 10.8522 11.2673 11.344 10.8636 11.9671C10.4599 12.5902 10.2467 13.3175 10.25 14.0599H11.75ZM14.38 19.7699C14.658 19.9799 14.978 20.2189 15.308 20.4019C15.638 20.5849 16.044 20.7509 16.5 20.7509V19.2509C16.406 19.2509 16.262 19.2149 16.037 19.0909C15.7733 18.9338 15.5201 18.7588 15.279 18.5689L14.379 19.7699H14.38ZM18.62 19.7699C19.385 19.1979 20.426 18.4979 21.24 17.6259C22.08 16.7269 22.75 15.5789 22.75 14.0599H21.25C21.25 15.0849 20.814 15.8849 20.144 16.6019C19.449 17.3469 18.576 17.9289 17.721 18.5689L18.62 19.7699ZM17.721 18.5689C17.4799 18.7585 17.2267 18.9332 16.963 19.0899C16.738 19.2149 16.594 19.2509 16.5 19.2509V20.7509C16.956 20.7509 17.361 20.5849 17.692 20.4009C18.022 20.2189 18.342 19.9789 18.621 19.7709L17.721 18.5689ZM22.75 14.0599C22.7525 13.0698 22.3728 12.1169 21.69 11.3999L20.605 12.4369C21.002 12.8519 21.25 13.4239 21.25 14.0599H22.75ZM21.69 11.3999C21.3496 11.0402 20.94 10.753 20.4858 10.5556C20.0316 10.3582 19.5422 10.2545 19.047 10.2509C18.003 10.2459 16.926 10.6849 15.973 11.6259L17.027 12.6919C17.737 11.9919 18.445 11.7479 19.04 11.7509C19.643 11.7539 20.199 12.0109 20.605 12.4359L21.69 11.3999ZM21.824 12.2419C22.4411 10.9559 22.7577 9.54634 22.75 8.11991H21.25C21.2575 9.32248 20.9908 10.5109 20.47 11.5949L21.824 12.2419ZM15.279 18.5689C15.1349 18.4614 14.9903 18.3558 14.845 18.2499L13.959 19.4599L14.379 19.7699L15.279 18.5689ZM14.845 18.2499C13.219 17.0589 11.75 15.9429 11.75 14.0599H10.25C10.25 16.8269 12.477 18.3749 13.959 19.4599L14.845 18.2499ZM13.939 18.2649C13.112 18.9129 12.506 19.2509 12 19.2509V20.7509C13.083 20.7509 14.065 20.0719 14.865 19.4449L13.939 18.2649Z" fill="url(#paint0_linear_1221_9074)"/>
<path d="M8.962 18.3379L9.439 17.7599M9.439 17.7599C6.385 15.2439 2.75 12.7739 2.75 8.11991M9.439 17.7599L8.485 18.9179M9.439 17.7599C9.965 18.1929 10.434 18.5749 10.886 18.8509C11.34 19.1279 11.699 19.2509 12 19.2509M14.829 19.1689L15.279 18.5689M15.279 18.5689C15.5201 18.7588 15.7733 18.9338 16.037 19.0909C16.262 19.2149 16.406 19.2509 16.5 19.2509M15.279 18.5689L14.379 19.7699M15.279 18.5689C15.1349 18.4614 14.9903 18.3558 14.845 18.2499M15.973 12.6919L16.5 12.1589V12.1579L17.027 12.6919M15.973 12.6919C16.1134 12.8305 16.3027 12.9083 16.5 12.9083C16.6973 12.9083 16.8866 12.8305 17.027 12.6919M15.973 12.6919C14.93 11.6629 13.877 11.5989 13.12 11.9279C12.326 12.2729 11.75 13.0909 11.75 14.0599M15.973 12.6919L17.027 11.6259C15.594 10.2109 13.897 9.95491 12.523 10.5519C11.844 10.8522 11.2673 11.344 10.8636 11.9671C10.4599 12.5902 10.2467 13.3175 10.25 14.0599M17.027 12.6919L15.973 11.6259C16.926 10.6849 18.003 10.2459 19.047 10.2509C19.5422 10.2545 20.0316 10.3582 20.4858 10.5556C20.94 10.753 21.3496 11.0402 21.69 11.3999M17.027 12.6919C17.737 11.9919 18.445 11.7479 19.04 11.7509C19.643 11.7539 20.199 12.0109 20.605 12.4359L21.69 11.3999M18.171 19.1689L17.721 18.5689M17.721 18.5689C18.576 17.9289 19.449 17.3469 20.144 16.6019C20.814 15.8849 21.25 15.0849 21.25 14.0599M17.721 18.5689L18.62 19.7699C19.385 19.1979 20.426 18.4979 21.24 17.6259C22.08 16.7269 22.75 15.5789 22.75 14.0599M17.721 18.5689C17.4799 18.7585 17.2267 18.9332 16.963 19.0899C16.738 19.2149 16.594 19.2509 16.5 19.2509M17.721 18.5689L18.621 19.7709C18.342 19.9789 18.022 20.2189 17.692 20.4009C17.361 20.5849 16.956 20.7509 16.5 20.7509M2.75 8.11991H1.25M2.75 8.11991C2.75 5.83991 3.982 3.94591 5.636 3.15591C7.232 2.39291 9.386 2.58591 11.448 4.82591L12.552 3.80991C10.114 1.15991 7.268 0.711911 4.989 1.79991C2.768 2.86291 1.25 5.31391 1.25 8.11991M1.25 8.11991C1.25 13.6359 5.654 16.5849 8.485 18.9179M8.485 18.9179C8.997 19.3399 9.547 19.7899 10.105 20.1309C10.661 20.4709 11.301 20.7509 12 20.7509M12 20.7509V19.2509M12 20.7509C13.083 20.7509 14.065 20.0719 14.865 19.4449L13.939 18.2649C13.112 18.9129 12.506 19.2509 12 19.2509M22.75 8.11991C22.75 5.31491 21.232 2.86391 19.01 1.80191C16.732 0.712911 13.886 1.16191 11.448 3.80991L12.552 4.82591C14.614 2.58591 16.768 2.39291 18.364 3.15591C20.018 3.94591 21.25 5.83991 21.25 8.11991M22.75 8.11991H21.25M22.75 8.11991C22.7577 9.54634 22.4411 10.9559 21.824 12.2419L20.47 11.5949C20.9908 10.5109 21.2575 9.32248 21.25 8.11991M11.75 14.0599H10.25M11.75 14.0599C11.75 15.9429 13.219 17.0589 14.845 18.2499M10.25 14.0599C10.25 16.8269 12.477 18.3749 13.959 19.4599M16.5 20.7509C16.044 20.7509 15.638 20.5849 15.308 20.4019C14.978 20.2189 14.658 19.9799 14.38 19.7699H14.379M16.5 20.7509V19.2509M14.379 19.7699L13.959 19.4599M22.75 14.0599H21.25M22.75 14.0599C22.7525 13.0698 22.3728 12.1169 21.69 11.3999M21.25 14.0599C21.25 13.4239 21.002 12.8519 20.605 12.4369L21.69 11.3999M14.845 18.2499L13.959 19.4599M12 4.31691L11.448 4.82491C11.5182 4.90128 11.6036 4.96224 11.6986 5.00394C11.7936 5.04564 11.8962 5.06718 12 5.06718C12.1038 5.06718 12.2064 5.04564 12.3014 5.00394C12.3964 4.96224 12.4818 4.90128 12.552 4.82491L12 4.31691Z" stroke="url(#paint1_linear_1221_9074)"/>
<defs>
<linearGradient id="paint0_linear_1221_9074" x1="12.0001" y1="1.24854" x2="12.0001" y2="20.7509" gradientUnits="userSpaceOnUse">
<stop stop-color="#39BFF9"/>
<stop offset="1" stop-color="#4388EE"/>
</linearGradient>
<linearGradient id="paint1_linear_1221_9074" x1="12.0001" y1="1.24854" x2="12.0001" y2="20.7509" gradientUnits="userSpaceOnUse">
<stop stop-color="#39BFF9"/>
<stop offset="1" stop-color="#4388EE"/>
</linearGradient>
</defs>
</svg>
